<?xml version="1.0" encoding="UTF-8"?>
<svg width="124px" height="51px" viewBox="0 0 124 51" version="1.1" xmlns="http://www.w3.org/2000/svg" xmlns:xlink="http://www.w3.org/1999/xlink">
    <!-- Generator: sketchtool 61.2 (101010) - https://sketch.com -->
    <title>F0BC9DFB-0AB9-4CC5-B5AB-70CC7A5E08CC</title>
    <desc>Created with sketchtool.</desc>
    <defs>
        <polygon id="path-1" points="0.0900300036 0.113340005 16.5600007 0.113340005 16.5600007 18.4868407 0.0900300036 18.4868407"></polygon>
        <polygon id="path-3" points="3.00000012e-05 0.0633000025 50.636732 0.0633000025 50.636732 50.699942 3.00000012e-05 50.699942"></polygon>
    </defs>
    <g id="Dev-Prep" stroke="none" stroke-width="1" fill="none" fill-rule="evenodd">
        <g id="Assets" transform="translate(-277.000000, -375.000000)">
            <g id="Group-37" transform="translate(277.000000, 375.000000)">
                <path d="M56.1929422,23.7484209 L66.0086426,23.7484209 C65.8760426,22.2697209 65.5010426,21.1609208 64.8830426,20.4214208 C63.9338425,19.2736208 62.7038425,18.6997207 61.1918424,18.6997207 C59.8235424,18.6997207 58.6730423,19.1578208 57.7406423,20.0737208 C56.8079423,20.9899208 56.2922422,22.2148209 56.1929422,23.7484209 M65.9756426,28.5652211 L69.0542427,28.9459212 C68.5685427,30.7447212 67.6697427,32.1406213 66.3560426,33.1339213 C65.0429426,34.1269214 63.3659425,34.6234214 61.3241424,34.6234214 C58.7528423,34.6234214 56.7143423,33.8320213 55.2080422,32.2483213 C53.7017421,30.6649212 52.9487421,28.4440211 52.9487421,25.585921 C52.9487421,22.6285209 53.7101421,20.3332208 55.2329422,18.6997207 C56.7557423,17.0668207 58.7309423,16.2499206 61.1588424,16.2499206 C63.5090425,16.2499206 65.4290426,17.0503207 66.9191427,18.6502207 C68.4086427,20.2504208 69.1538427,22.5016209 69.1538427,25.403821 C69.1538427,25.580221 69.1481427,25.845121 69.1367427,26.198521 L56.0273422,26.198521 C56.1374422,28.1293211 56.6837423,29.6080212 57.6662423,30.6346212 C58.6481423,31.6606213 59.8730424,32.1736213 61.3409424,32.1736213 C62.4332425,32.1736213 63.3659425,31.8868213 64.1381425,31.3129212 C64.9106426,30.7393212 65.5229426,29.8234212 65.9756426,28.5652211" id="Fill-1" fill="#231F20"></path>
                <path d="M84.2663733,27.7874411 L87.1961735,28.1681411 C86.8760735,30.1874412 86.0567734,31.7684413 84.7379734,32.9102413 C83.4194733,34.0526414 81.8000733,34.6235414 79.8800732,34.6235414 C77.4740731,34.6235414 75.540273,33.8372413 74.0780729,32.2649413 C72.6158729,30.6923412 71.8850729,28.4384411 71.8850729,25.502941 C71.8850729,23.6051409 72.1994729,21.9440409 72.8282729,20.5205408 C73.4576729,19.0970408 74.414673,18.0296407 75.700173,17.3177407 C76.9856731,16.6061407 78.3845731,16.2500406 79.8965732,16.2500406 C81.8054733,16.2500406 83.3669733,16.7327407 84.5810734,17.6984407 C85.7948734,18.6641407 86.5724734,20.0351408 86.9147735,21.8117409 L84.0179733,22.2587409 C83.7422733,21.0779408 83.2538733,20.1896408 82.5530733,19.5938408 C81.8522733,18.9977408 81.0056732,18.6998407 80.0123732,18.6998407 C78.5114731,18.6998407 77.2919731,19.2377408 76.354173,20.3138408 C75.416073,21.3896408 74.947173,23.0921409 74.947173,25.420141 C74.947173,27.7817411 75.399573,29.4977412 76.304673,30.5684412 C77.2094731,31.6385413 78.3899731,32.1737413 79.8467732,32.1737413 C81.0164732,32.1737413 81.9929733,31.8152413 82.7765733,31.0979412 C83.5601733,30.3806412 84.0566733,29.2769412 84.2663733,27.7874411" id="Fill-3" fill="#231F20"></path>
                <path d="M89.7454836,34.2262814 L89.7454836,9.9598804 L92.7250837,9.9598804 L92.7250837,18.6667807 C94.1152837,17.0557807 95.8696838,16.2499806 97.9885839,16.2499806 C99.2905839,16.2499806 100.421884,16.5067807 101.381884,17.0197807 C102.341884,17.5327807 103.028884,18.2419807 103.442584,19.1467808 C103.856584,20.0515808 104.063584,21.3646808 104.063584,23.0863809 L104.063584,34.2262814 L101.083984,34.2262814 L101.083984,23.0863809 C101.083984,21.5965809 100.761184,20.5123808 100.115584,19.8334808 C99.469984,19.1551808 98.5567839,18.8155807 97.3762839,18.8155807 C96.4930838,18.8155807 95.6629838,19.0447808 94.8850838,19.5025808 C94.1068837,19.9606808 93.5521837,20.5813808 93.2212837,21.3646808 C92.8900837,22.1485809 92.7250837,23.2297809 92.7250837,24.609181 L92.7250837,34.2262814 L89.7454836,34.2262814 Z" id="Fill-5" fill="#231F20"></path>
                <g id="Group-9" transform="translate(107.400004, 16.136701)">
                    <mask id="mask-2" fill="white">
                        <use xlink:href="#path-1"></use>
                    </mask>
                    <g id="Clip-8"></g>
                    <path d="M3.15213013,9.29994037 C3.15213013,11.5511405 3.64323014,13.2371405 4.62543018,14.3567406 C5.60763022,15.4772406 6.84363027,16.0370406 8.33343033,16.0370406 C9.81183039,16.0370406 11.0424304,15.4742406 12.0243305,14.3486406 C13.0068305,13.2230405 13.4976305,11.5070405 13.4976305,9.20064037 C13.4976305,7.02684028 13.0038305,5.37984021 12.0162305,4.25964017 C11.0286304,3.13974012 9.80073039,2.5796401 8.33343033,2.5796401 C6.84363027,2.5796401 5.60763022,3.13704012 4.62543018,4.25154017 C3.64323014,5.36634021 3.15213013,7.04904028 3.15213013,9.29994037 M0.0900300036,9.29994037 C0.0900300036,6.04494024 0.99483004,3.63354014 2.80473011,2.06664008 C4.31643017,0.76464003 6.15903024,0.113340005 8.33343033,0.113340005 C10.7499304,0.113340005 12.7251305,0.905340036 14.2590306,2.4887401 C15.7929306,4.07214016 16.5600307,6.26004025 16.5600307,9.05184036 C16.5600307,11.3141404 16.2207306,13.0937405 15.5421306,14.3900406 C14.8632306,15.6869406 13.8756306,16.6937407 12.5790305,17.4110407 C11.2824304,18.1283407 9.86703039,18.4868407 8.33343033,18.4868407 C5.87223023,18.4868407 3.88323015,17.6978407 2.36613009,16.1195406 C0.848430034,14.5418406 0.0900300036,12.2687405 0.0900300036,9.29994037" id="Fill-7" fill="#231F20" mask="url(#mask-2)"></path>
                </g>
                <path d="M4.02327016,0.391200016 L46.4654718,0.391200016 C48.7151719,0.391200016 50.538872,2.21520009 50.538872,4.46460018 L50.538872,46.9986019 C50.538872,49.248902 48.7847719,50.829902 46.5350718,50.829902 L4.13877016,50.891402 C2.23377009,50.953502 0.0221700009,49.0482019 0.0221700009,47.1432019 L0.0833700033,4.50180018 C0.0833700033,2.25210009 1.77357007,0.391200016 4.02327016,0.391200016" id="Fill-10" fill="#FEFEFE"></path>
                <g id="Group-14" transform="translate(0.000000, 0.236700)">
                    <mask id="mask-4" fill="white">
                        <use xlink:href="#path-3"></use>
                    </mask>
                    <g id="Clip-13"></g>
                    <path d="M3.82113015,0.0632400025 L27.6021311,0.0632400025 C14.1924306,4.53864018 4.03923016,12.4334405 3.00000012e-05,21.9287409 L3.00000012e-05,3.88494015 C3.00000012e-05,1.77384007 1.71063007,0.0632400025 3.82113015,0.0632400025 M35.5329314,0.0632400025 L42.3906317,0.0632400025 C23.965831,3.02754012 10.0335304,13.9154406 10.0335304,26.8937411 C10.0335304,37.0316415 18.3738307,45.8942418 30.8076312,50.699942 L14.0982306,50.699942 C8.33643033,45.2045418 4.9362302,38.4353415 4.9362302,31.1126412 C4.9362302,16.9640407 17.6319307,4.87794019 35.5329314,0.0632400025 M48.8499319,0.649440026 C49.507832,1.06404004 50.030732,1.67424007 50.336732,2.3981401 C33.2544313,3.49794014 19.9062308,12.9752405 19.9062308,24.503941 C19.9062308,36.1004414 33.4107313,45.6212418 50.636732,46.6286419 L50.636732,46.8782419 C50.636732,48.9893419 48.9255319,50.699942 46.8147319,50.699942 L37.4874315,50.699942 C24.691831,46.6319419 15.7635306,37.4321415 15.7635306,26.7338411 C15.7635306,13.0847405 30.2943312,1.87434007 48.8499319,0.649440026 M50.575532,3.20064013 C50.615732,3.42264014 50.636732,3.65124015 50.636732,3.88494015 L50.636732,45.1760418 C35.7888314,44.0900418 24.204931,35.1071414 24.204931,24.185941 C24.204931,13.2794405 35.7573314,4.30644017 50.575532,3.20064013 M7.4856303,50.699942 L3.82113015,50.699942 C1.71063007,50.699942 3.00000012e-05,48.9893419 3.00000012e-05,46.8782419 L3.00000012e-05,40.2968416 C1.59753006,44.0525418 4.15173016,47.5574419 7.4856303,50.699942" id="Fill-12" fill="#231F20" mask="url(#mask-4)"></path>
                </g>
                <path d="M37.4558415,6.79974027 C38.5244415,8.38554033 39.4094416,10.7903404 39.2795416,12.6872405 C38.8571415,18.8651407 31.2023412,25.160941 20.0999408,25.552741 C17.5313407,25.643041 15.0857406,25.418341 12.8471405,24.930241 C13.8968406,24.989041 14.9744406,25.001341 16.0727406,24.962341 C27.7589411,24.551041 35.8058414,18.1379407 36.4904414,12.4889405 C36.7904415,10.0139404 35.7056414,8.22804033 35.4635414,7.82994031 C35.4635414,7.82994031 36.8228415,7.08504028 37.6538415,6.70764027 L37.4558415,6.79974027" id="Fill-15" fill="#005594"></path>
                <path d="M41.8902017,5.0757602 C44.3589018,7.41096029 45.8631018,11.7696605 45.6405018,14.8641606 C45.1122018,22.2264609 33.2955013,30.3033612 19.3905008,30.4827612 C16.2234006,30.5238612 12.2094005,30.0702612 10.1679004,29.3511612 C10.1679004,29.3511612 13.0563005,29.5941612 14.6406006,29.6388612 C30.1251012,30.0759612 41.4735016,20.6178608 41.5905017,13.8369605 C41.6343017,11.3193604 40.9647016,8.09046032 39.1158016,6.07116024 C40.0719016,5.67186023 40.9785016,5.36286021 41.9988017,5.0415602 L41.8902017,5.0757602" id="Fill-17" fill="#005594"></path>
                <path d="M48.0144319,3.71037015 C49.0215319,4.55427018 49.885532,5.44227022 50.639732,6.38517025 L50.639732,22.5050709 C44.3532318,31.1429712 34.2072314,36.0983714 19.4298308,36.1019729 C13.9317306,36.1034714 8.91303035,34.9577714 6.04443024,34.0265714 C7.87833031,34.1195714 11.5461305,34.6694714 13.4655305,34.6889714 C36.4143314,34.9208714 48.3522319,22.6916709 48.3522319,14.7293706 C48.3522319,10.9808704 47.0067319,7.42347029 43.7961317,4.53537018 C45.2985318,4.13247016 46.3731318,3.93957016 47.9808319,3.71517015 L48.0144319,3.71037015" id="Fill-19" fill="#005594"></path>
                <path d="M58.8248423,44.5291218 L58.8248423,43.4206217 L62.8274425,43.4140217 L62.8274425,46.9204219 C62.2127425,47.4103219 61.5791424,47.7787219 60.9260424,48.0256219 C60.2729424,48.2728219 59.6024424,48.3964219 58.9151423,48.3964219 C57.9869423,48.3964219 57.1436423,48.1978219 56.3852422,47.8000219 C55.6268422,47.4028219 55.0544422,46.8280219 54.6677422,46.0759218 C54.2810422,45.3241218 54.0875421,44.4841218 54.0875421,43.5559217 C54.0875421,42.6364217 54.2798422,41.7781217 54.6644422,40.9810216 C55.0490422,40.1842216 55.6022422,39.5920216 56.3240422,39.2053216 C57.0458423,38.8186215 57.8774423,38.6251215 58.8185423,38.6251215 C59.5016424,38.6251215 60.1190424,38.7358215 60.6713424,38.9572215 C61.2236424,39.1786216 61.6562424,39.4867216 61.9700425,39.8821216 C62.2838425,40.2775216 62.5223425,40.7932216 62.6858425,41.4289216 L61.5575424,41.7382217 C61.4159424,41.2573216 61.2395424,40.8790216 61.0292424,40.6039216 C60.8186424,40.3291216 60.5177424,40.1089216 60.1268424,39.9433216 C59.7356424,39.7780216 59.3018424,39.6952216 58.8248423,39.6952216 C58.2533423,39.6952216 57.7592423,39.7822216 57.3425423,39.9562216 C56.9255423,40.1302216 56.5892422,40.3591216 56.3336422,40.6426216 C56.0780422,40.9261216 55.8794422,41.2378216 55.7375422,41.5771217 C55.4969422,42.1615217 55.3766422,42.7954217 55.3766422,43.4785217 C55.3766422,44.3209218 55.5215422,45.0253218 55.8116422,45.5926218 C56.1017422,46.1599218 56.5238422,46.5811219 57.0782423,46.8559219 C57.6323423,47.1310219 58.2209423,47.2684219 58.8440423,47.2684219 C59.3855424,47.2684219 59.9141424,47.1643219 60.4298424,46.9558219 C60.9452424,46.7476219 61.3364424,46.5250218 61.6028424,46.2886218 L61.6028424,44.5291218 L58.8248423,44.5291218 Z" id="Fill-21" fill="#231F20"></path>
                <path d="M64.5097526,48.2351719 L64.5097526,41.3903716 L65.5537526,41.3903716 L65.5537526,42.4280717 C65.8201526,41.9423717 66.0661526,41.6222717 66.2917526,41.4674716 C66.5173526,41.3129716 66.7657527,41.2355716 67.0363527,41.2355716 C67.4272527,41.2355716 67.8247527,41.3603716 68.2285527,41.6093717 L67.8289527,42.6857717 C67.5454527,42.5180717 67.2619527,42.4343717 66.9784527,42.4343717 C66.7246527,42.4343717 66.4969526,42.5108717 66.2950526,42.6632717 C66.0928526,42.8159717 65.9491526,43.0274717 65.8633526,43.2980717 C65.7343526,43.7105717 65.6698526,44.1617718 65.6698526,44.6516718 L65.6698526,48.2351719 L64.5097526,48.2351719 Z" id="Fill-23" fill="#231F20"></path>
                <path d="M69.6788728,44.8127118 C69.6788728,45.6893118 69.8699728,46.3457118 70.2524728,46.7816119 C70.6349728,47.2181119 71.1161728,47.4359119 71.6963728,47.4359119 C72.2720729,47.4359119 72.7508729,47.2169119 73.1336729,46.7786119 C73.5158729,46.3403118 73.7072729,45.6722118 73.7072729,44.7740118 C73.7072729,43.9277117 73.5146729,43.2863117 73.1303729,42.8501117 C72.7457729,42.4142117 72.2675729,42.1958117 71.6963728,42.1958117 C71.1161728,42.1958117 70.6349728,42.4130117 70.2524728,42.8468117 C69.8699728,43.2812117 69.6788728,43.9361117 69.6788728,44.8127118 M68.4863727,44.8127118 C68.4863727,43.5452117 68.8385727,42.6065117 69.5435728,41.9960117 C70.1321728,41.4893116 70.8494728,41.2355116 71.6963728,41.2355116 C72.6371729,41.2355116 73.4063729,41.5439117 74.0036729,42.1604117 C74.600673,42.7772117 74.899473,43.6292117 74.899473,44.7161118 C74.899473,45.5969118 74.767473,46.2899118 74.503173,46.7945119 C74.2388729,47.2997119 73.8542729,47.6918119 73.3493729,47.9708119 C72.8444729,48.2501119 72.2933729,48.3899119 71.6963728,48.3899119 C70.7378728,48.3899119 69.9632728,48.0827119 69.3725728,47.4683119 C68.7818727,46.8539119 68.4863727,45.9689118 68.4863727,44.8127118" id="Fill-25" fill="#231F20"></path>
                <path d="M80.7454832,48.2351719 L80.7454832,47.2295719 C80.2126832,48.0032719 79.4887832,48.3899719 78.5734831,48.3899719 C78.1693831,48.3899719 77.7922831,48.3125719 77.4421831,48.1577719 C77.0917831,48.0032719 76.8319831,47.8088719 76.662483,47.5745719 C76.492383,47.3405719 76.373283,47.0537719 76.304583,46.7141719 C76.257183,46.4864718 76.233783,46.1255718 76.233783,45.6311718 L76.233783,41.3903716 L77.3938831,41.3903716 L77.3938831,45.1865718 C77.3938831,45.7922718 77.4172831,46.2008718 77.4646831,46.4111718 C77.5378831,46.7165719 77.6923831,46.9556719 77.9287831,47.1296719 C78.1648831,47.3039719 78.4573831,47.3909719 78.8053831,47.3909719 C79.1533831,47.3909719 79.4797832,47.3018719 79.7851832,47.1233719 C80.0899832,46.9451719 80.3059832,46.7024719 80.4328832,46.3949718 C80.5594832,46.0880718 80.6230832,45.6419718 80.6230832,45.0575718 L80.6230832,41.3903716 L81.7831832,41.3903716 L81.7831832,48.2351719 L80.7454832,48.2351719 Z" id="Fill-27" fill="#231F20"></path>
                <path d="M84.6513334,44.8513818 C84.6513334,45.7324818 84.8295334,46.3831818 85.1862334,46.8043819 C85.5429334,47.2255819 85.9746334,47.4358819 86.4819334,47.4358819 C86.9973335,47.4358819 87.4389335,47.2180819 87.8064335,46.7818819 C88.1736335,46.3456818 88.3575335,45.6700818 88.3575335,44.7547818 C88.3575335,43.8826817 88.1778335,43.2295817 87.8193335,42.7951817 C87.4602335,42.3613817 87.0318335,42.1444817 86.5332334,42.1444817 C86.0391334,42.1444817 85.6020334,42.3754817 85.2216334,42.8371817 C84.8415334,43.2991817 84.6513334,43.9705817 84.6513334,44.8513818 L84.6513334,44.8513818 Z M83.6007333,50.858282 L83.6007333,41.3902816 L84.6576334,41.3902816 L84.6576334,42.2797817 C84.9069334,41.9317817 85.1883334,41.6704817 85.5021334,41.4964816 C85.8156334,41.3224816 86.1957334,41.2354816 86.6430334,41.2354816 C87.2271335,41.2354816 87.7428335,41.3860816 88.1898335,41.6866817 C88.6365335,41.9875817 88.9737335,42.4117817 89.2017335,42.9595817 C89.4294336,43.5076817 89.5434336,44.1079818 89.5434336,44.7610818 C89.5434336,45.4615818 89.4177336,46.0921818 89.1663335,46.6528819 C88.9149335,47.2135819 88.5495335,47.6434819 88.0704335,47.9419819 C87.5913335,48.2404819 87.0876335,48.3898819 86.5590334,48.3898819 C86.1723334,48.3898819 85.8252334,48.3079819 85.5183334,48.1450819 C85.2108334,47.9818819 84.9582334,47.7754819 84.7608334,47.5261819 L84.7608334,50.858282 L83.6007333,50.858282 Z" id="Fill-29" fill="#231F20"></path>
                <polygon id="Fill-31" fill="#231F20" points="56.8074623 12.0552905 56.8074623 3.72159015 53.6943621 3.72159015 53.6943621 2.6064901 61.1838624 2.6064901 61.1838624 3.72159015 58.0578623 3.72159015 58.0578623 12.0552905"></polygon>
                <path d="M62.3183425,12.0552905 L62.3183425,2.6064901 L63.4784425,2.6064901 L63.4784425,5.99679024 C64.0199425,5.36949021 64.7030426,5.0556902 65.5280426,5.0556902 C66.0350426,5.0556902 66.4754426,5.1555902 66.8495427,5.35539021 C67.2233427,5.55519022 67.4903427,5.83119023 67.6514427,6.18369025 C67.8125427,6.53619026 67.8935427,7.04739028 67.8935427,7.71759031 L67.8935427,12.0552905 L66.7334427,12.0552905 L66.7334427,7.71759031 C66.7334427,7.13739028 66.6074426,6.71529027 66.3560426,6.45099026 C66.1046426,6.18669025 65.7491426,6.05469024 65.2895426,6.05469024 C64.9457426,6.05469024 64.6223426,6.14379024 64.3193426,6.32229025 C64.0163425,6.50049026 63.8006425,6.74229027 63.6719425,7.04739028 C63.5429425,7.35249029 63.4784425,7.77369031 63.4784425,8.31069033 L63.4784425,12.0552905 L62.3183425,12.0552905 Z" id="Fill-33" fill="#231F20"></path>
                <path d="M70.5361228,7.97541032 L74.358123,7.97541032 C74.306523,7.39971029 74.1604229,6.96801028 73.9198229,6.68001027 C73.5502229,6.23301025 73.0711229,6.00951024 72.4825229,6.00951024 C71.9497229,6.00951024 71.5018228,6.18801025 71.1388228,6.54441026 C70.7755228,6.90111027 70.5748228,7.37811029 70.5361228,7.97541032 M74.345223,9.85101039 L75.544023,9.9992104 C75.354723,10.6997104 75.004923,11.2433104 74.493423,11.6300105 C73.9819229,12.0167105 73.3291229,12.2099105 72.5341229,12.2099105 C71.5327228,12.2099105 70.7392228,11.9018105 70.1527228,11.2850104 C69.5662228,10.6685104 69.2728228,9.80391039 69.2728228,8.69091035 C69.2728228,7.5392103 69.5692228,6.64551026 70.1623228,6.00951024 C70.7551228,5.37381021 71.5243228,5.0558102 72.4696229,5.0558102 C73.3849229,5.0558102 74.1325229,5.36721021 74.712723,5.99031024 C75.292623,6.61341026 75.582723,7.4900103 75.582723,8.61981034 C75.582723,8.68881035 75.580323,8.79201035 75.576423,8.92941035 L70.4716228,8.92941035 C70.5145228,9.68151038 70.7272228,10.2569104 71.1097228,10.6568104 C71.4922228,11.0564104 71.9689229,11.2562104 72.5407229,11.2562104 C72.9661229,11.2562104 73.3291229,11.1443104 73.6300229,10.9208104 C73.9303229,10.6976104 74.1688229,10.3409104 74.345223,9.85101039" id="Fill-35" fill="#231F20"></path>
            </g>
        </g>
    </g>
</svg>